# xmcd CD database file
#
# Track frame offsets:
#	150
#	21906
#	66771
#	91673
#	116125
#	144522
#	165674
#	184651
#	199571
#	221350
#	248267
#
# Disc length: 3854 seconds
#
# Revision: 0
# Processed by: cddbd v1.5.1PL0 Copyright (c) Steve Scherf et al.
# Submitted via: CDex 1.60beta1
#
DISCID=8b0f0c0b
DTITLE=Michael Rabinowitz - Ocean Eyes
DYEAR=1900
DGENRE=Jazz
TTITLE0=Flow Chart
TTITLE1=The Frog and The Princess
TTITLE2=Cen
TTITLE3=FMB
TTITLE4=For Meryl
TTITLE5=Sunrise
TTITLE6=Oneirology
TTITLE7=True and False
TTITLE8=Once Upon a Time
TTITLE9=Hurrricane Ridge Waltz
TTITLE10=Ocean Eyes
EXTD=
EXTT0=
EXTT1=
EXTT2=
EXTT3=
EXTT4=
EXTT5=
EXTT6=
EXTT7=
EXTT8=
EXTT9=
EXTT10=
PLAYORDER=
